<svg xmlns="http://www.w3.org/2000/svg" width="6" height="10.500" viewBox="0 0 6 10.500" fill="none">
  <path d="M 6.277 0.416 C 6.507 0.263 6.569 -0.048 6.416 -0.277 C 6.263 -0.507 5.952 -0.569 5.723 -0.416 L 6.277 0.416 Z M 0.5 8 L 0.015 7.879 C 0.013 7.886 0.011 7.894 0.01 7.902 L 0.5 8 Z M 0 10.5 L -0.49 10.402 C -0.537 10.636 -0.412 10.871 -0.191 10.962 C 0.029 11.053 0.284 10.976 0.416 10.777 L 0 10.5 Z M 1.416 9.277 C 1.569 9.048 1.507 8.737 1.277 8.584 C 1.048 8.431 0.737 8.493 0.584 8.723 L 1.416 9.277 Z M 5.723 -0.416 C 4.19 0.606 3.012 1.647 2.09 2.963 C 1.17 4.279 0.524 5.841 0.015 7.879 L 0.985 8.121 C 1.476 6.159 2.08 4.721 2.91 3.537 C 3.738 2.353 4.81 1.394 6.277 0.416 L 5.723 -0.416 Z M 0.01 7.902 L -0.49 10.402 L 0.49 10.598 L 0.99 8.098 L 0.01 7.902 Z M 0.416 10.777 L 1.416 9.277 L 0.584 8.723 L -0.416 10.223 L 0.416 10.777 Z" fill="currentColor" fill-rule="nonzero"></path>
</svg>